<?xml version="1.0" standalone="no"?>
<!DOCTYPE svg PUBLIC "-//W3C//DTD SVG 20010904//EN"
 "http://www.w3.org/TR/2001/REC-SVG-20010904/DTD/svg10.dtd">
<svg version="1.0" xmlns="http://www.w3.org/2000/svg"
 width="519.000000pt" height="480.000000pt" viewBox="0 0 519.000000 480.000000"
 preserveAspectRatio="xMidYMid meet">

<g transform="translate(0.000000,480.000000) scale(0.100000,-0.100000)"
fill="#000000" stroke="none">
<path d="M2612 4505 c-18 -8 -106 -57 -195 -109 -236 -137 -1212 -701 -1351
-781 -65 -37 -135 -84 -156 -104 -74 -70 -71 -25 -68 -1132 l3 -985 25 -49
c26 -50 95 -106 198 -160 20 -11 95 -54 167 -96 148 -86 329 -191 760 -439
165 -95 352 -203 415 -240 198 -116 217 -124 295 -128 87 -5 76 -10 615 302
678 393 747 432 1020 589 162 92 185 111 214 169 l26 52 0 1005 c0 952 -1
1008 -19 1046 -20 44 -81 104 -133 131 -18 9 -112 63 -208 119 -96 56 -305
177 -465 269 -159 93 -330 192 -380 221 -49 28 -198 114 -330 191 l-240 139
-80 2 c-55 2 -91 -2 -113 -12z m209 -1382 c311 -168 299 -161 299 -199 0 -30
-3 -34 -25 -34 l-24 0 -3 -152 -3 -153 -134 0 c-99 0 -135 3 -138 13 -4 9 24
12 116 12 l120 0 3 153 3 152 28 3 c15 2 27 7 27 11 0 7 -219 131 -327 185
-59 30 -48 33 -218 -64 -55 -32 -124 -69 -152 -84 -59 -29 -66 -43 -25 -48
l27 -3 3 -152 3 -153 149 0 150 0 0 120 c0 100 3 120 15 120 12 0 15 -14 15
-70 0 -38 4 -70 8 -70 5 0 17 9 27 20 25 27 15 98 -19 151 -23 34 -30 38 -42
28 -44 -36 -70 -149 -42 -177 9 -9 9 -15 0 -24 -9 -9 -16 -8 -30 5 -25 26 -22
124 6 169 29 47 68 82 85 75 26 -10 70 -77 83 -127 18 -68 4 -115 -42 -142
-31 -18 -34 -24 -34 -64 l0 -44 -182 2 -183 3 -3 153 -3 152 -24 0 c-15 0 -26
7 -30 20 -13 42 -4 48 295 208 36 19 74 41 85 49 11 7 22 13 26 13 3 0 52 -25
110 -57z m-1004 -797 l28 -24 3 -176 4 -176 -36 0 -36 0 0 55 c0 42 -3 55 -15
55 -12 0 -15 -13 -15 -55 0 -54 0 -55 -30 -55 l-30 0 0 149 c0 169 4 201 32
230 25 28 61 26 95 -3z m978 18 c35 -14 45 -58 45 -199 0 -102 -4 -143 -15
-165 -26 -50 -90 -52 -122 -3 -19 28 -30 200 -19 276 12 77 55 112 111 91z
m1079 -5 c48 -22 61 -101 18 -107 -18 -3 -25 3 -33 27 -14 39 -26 39 -34 3 -7
-36 8 -78 32 -86 61 -20 87 -163 38 -211 -52 -53 -125 -13 -125 70 0 41 2 45
24 45 25 0 36 -16 36 -52 0 -35 25 -13 28 25 3 32 -2 42 -42 81 -45 44 -46 45
-46 109 0 59 3 68 26 86 30 24 43 26 78 10z m-2242 -16 c21 -24 31 -91 19
-131 -6 -21 -7 -52 -1 -80 4 -26 10 -72 11 -102 l3 -55 -32 -3 -32 -3 0 59 c0
79 -9 122 -26 122 -11 0 -14 -20 -14 -90 l0 -90 -30 0 -30 0 0 195 0 195 58 0
c44 0 63 -5 74 -17z m388 -10 c19 -25 21 -35 15 -88 -8 -77 -8 -75 3 -175 6
-47 8 -88 5 -92 -2 -5 -17 -8 -34 -8 l-29 0 0 68 c0 80 -8 112 -26 112 -11 0
-14 -20 -14 -90 l0 -90 -30 0 -30 0 0 195 0 195 59 0 c53 0 62 -3 81 -27z
m175 2 c0 -15 -8 -21 -32 -23 -33 -3 -33 -4 -33 -57 0 -51 1 -54 28 -57 19 -2
27 -9 27 -23 0 -14 -8 -21 -27 -23 -27 -3 -28 -5 -28 -62 l0 -59 33 -3 c27 -2
32 -7 32 -28 0 -24 -3 -25 -62 -28 l-63 -3 0 196 0 196 63 -3 c54 -3 62 -5 62
-23z m256 9 c15 -18 25 -120 15 -158 -8 -34 -33 -56 -62 -56 -23 0 -24 -2 -24
-80 l0 -80 -30 0 -30 0 0 195 0 195 59 0 c41 0 62 -5 72 -16z m180 0 c16 -20
24 -126 11 -150 -5 -10 -7 -27 -2 -38 4 -12 11 -58 15 -103 l7 -83 -31 0 -31
0 -1 63 c-1 72 -10 109 -27 115 -9 3 -12 -20 -12 -87 l0 -91 -30 0 -30 0 0
195 0 195 59 0 c41 0 62 -5 72 -16z m375 -5 c15 -17 19 -36 19 -94 0 -84 -18
-115 -67 -115 l-28 0 0 -80 0 -80 -30 0 -30 0 0 195 0 195 58 0 c47 0 63 -4
78 -21z m164 -4 c0 -21 -5 -25 -30 -25 -30 0 -30 -1 -30 -55 0 -52 1 -55 25
-55 20 0 25 -5 25 -25 0 -20 -5 -25 -25 -25 -24 0 -25 -3 -25 -60 l0 -60 30 0
c27 0 30 -3 30 -30 l0 -30 -60 0 -60 0 0 195 0 195 60 0 c57 0 60 -1 60 -25z
m154 10 c22 -23 30 -81 18 -133 -5 -25 -6 -56 -2 -71 5 -14 11 -59 14 -98 l5
-73 -29 0 c-28 0 -28 0 -35 78 -8 92 -10 102 -27 102 -10 0 -13 -23 -13 -87
l0 -88 -32 -3 -33 -3 0 195 0 196 59 0 c40 0 65 -5 75 -15z m196 -10 c0 -20
-5 -25 -25 -25 l-25 0 0 -170 0 -170 -30 0 -30 0 0 170 0 170 -25 0 c-20 0
-25 5 -25 25 0 25 1 25 80 25 79 0 80 0 80 -25z m80 -170 l0 -195 -32 0 -33 0
2 188 c1 103 2 190 2 195 1 4 15 7 31 7 l30 0 0 -195z m155 170 c0 -15 -8 -21
-32 -23 -33 -3 -33 -4 -33 -57 0 -51 1 -54 28 -57 19 -2 27 -9 27 -23 0 -14
-8 -21 -27 -23 -27 -3 -28 -5 -28 -62 l0 -59 33 -3 c27 -2 32 -7 32 -28 0 -24
-3 -25 -62 -28 l-63 -3 0 196 0 196 63 -3 c54 -3 62 -5 62 -23z m-1743 -592
c2 -45 7 -59 20 -61 14 -3 17 6 20 52 4 72 22 73 26 2 3 -49 0 -57 -23 -72
-23 -15 -27 -15 -50 0 -21 14 -25 24 -25 70 0 29 3 56 7 59 16 16 22 3 25 -50z
m147 20 l20 -38 1 38 c0 26 4 37 15 37 12 0 15 -14 15 -70 0 -57 -3 -70 -15
-70 -9 0 -22 15 -30 33 l-14 32 -1 -32 c0 -23 -5 -33 -15 -33 -12 0 -15 14
-15 70 0 39 4 70 10 70 5 0 18 -17 29 -37z m121 -35 c0 -51 -7 -78 -21 -78
-10 0 -12 133 -2 143 12 13 23 -17 23 -65z m118 60 c19 -19 15 -102 -7 -126
-24 -28 -29 -28 -58 5 -21 22 -24 33 -20 71 3 24 11 48 18 53 20 12 53 11 67
-3z m82 -49 c4 -39 9 -54 20 -54 11 0 16 14 18 58 2 42 7 57 17 57 12 0 15
-14 15 -60 0 -52 -3 -61 -25 -76 -23 -15 -27 -15 -50 0 -22 15 -25 23 -25 77
0 78 23 77 30 -2z m185 46 c0 -5 -12 -12 -27 -15 -30 -5 -27 -21 7 -35 19 -8
19 -9 -2 -12 -30 -6 -32 -43 -3 -43 11 0 20 -7 20 -15 0 -10 -11 -15 -35 -15
l-35 0 0 68 c0 38 3 72 7 76 11 10 68 3 68 -9z m195 0 c0 -9 -9 -15 -25 -15
-16 0 -25 -6 -25 -15 0 -8 9 -15 19 -15 11 0 23 -4 26 -10 4 -6 -5 -10 -19
-10 -19 0 -26 -5 -26 -20 0 -15 7 -20 26 -20 37 0 25 -24 -14 -28 -35 -4 -34
-5 -34 103 0 14 0 30 1 35 2 17 71 12 71 -5z m109 2 c15 -19 3 -28 -25 -21
-33 9 -30 -8 6 -28 54 -31 29 -99 -27 -77 -13 5 -23 15 -23 24 0 18 12 19 28
3 9 -9 15 -9 24 0 8 8 3 15 -20 29 -23 13 -32 25 -32 45 0 36 45 53 69 25z
m131 -2 c0 -8 -7 -15 -15 -15 -11 0 -15 -13 -15 -54 0 -55 -12 -80 -24 -50 -3
9 -6 36 -6 60 0 32 -4 44 -15 44 -8 0 -15 7 -15 15 0 11 12 15 45 15 33 0 45
-4 45 -15z m104 -40 c9 -30 19 -61 22 -70 4 -10 0 -15 -10 -15 -9 0 -16 7 -16
15 0 8 -9 15 -20 15 -11 0 -20 -7 -20 -15 0 -8 -7 -15 -15 -15 -19 0 -19 4 1
71 27 89 36 92 58 14z m136 40 c0 -8 -7 -15 -15 -15 -12 0 -15 -13 -15 -55 0
-30 -4 -55 -10 -55 -5 0 -10 25 -10 55 0 48 -2 55 -20 55 -20 0 -26 11 -13 23
3 4 24 7 45 7 27 0 38 -4 38 -15z m110 0 c0 -9 -9 -15 -25 -15 -18 0 -23 -4
-19 -15 4 -8 12 -15 20 -15 8 0 14 -4 14 -10 0 -5 -7 -10 -15 -10 -8 0 -15 -9
-15 -20 0 -14 7 -20 21 -20 12 0 19 -5 17 -12 -3 -7 -18 -13 -34 -13 l-29 0
-3 73 -3 72 36 0 c24 0 35 -4 35 -15z"/>
<path d="M1750 2200 c0 -79 2 -90 18 -90 15 0 17 10 14 90 -3 70 -7 90 -18 90
-11 0 -14 -19 -14 -90z"/>
<path d="M2746 2268 c-8 -30 -8 -206 0 -235 4 -13 13 -23 20 -23 11 0 14 27
14 140 0 113 -3 140 -14 140 -7 0 -16 -10 -20 -22z"/>
<path d="M1560 2235 c0 -40 4 -55 14 -55 16 0 26 21 26 55 0 34 -10 55 -26 55
-10 0 -14 -15 -14 -55z"/>
<path d="M1940 2236 c0 -43 4 -56 15 -56 31 0 34 102 3 108 -15 3 -18 -5 -18
-52z"/>
<path d="M2380 2225 c0 -58 2 -66 18 -63 14 3 17 14 17 63 0 49 -3 60 -17 63
-16 3 -18 -5 -18 -63z"/>
<path d="M2560 2235 c0 -41 4 -55 14 -55 18 0 29 48 20 84 -3 14 -12 26 -20
26 -10 0 -14 -15 -14 -55z"/>
<path d="M2930 2224 c0 -57 2 -65 18 -62 14 3 18 16 20 66 3 57 1 62 -18 62
-18 0 -20 -6 -20 -66z"/>
<path d="M3255 2235 c0 -44 3 -55 15 -53 11 2 16 19 18 56 3 45 0 52 -15 52
-15 0 -18 -9 -18 -55z"/>
<path d="M2344 1737 c-3 -9 -4 -28 -2 -44 2 -20 8 -28 23 -28 17 0 20 7 20 40
0 30 -4 41 -18 43 -9 2 -20 -3 -23 -11z"/>
</g>
</svg>
